<svg width="517" height="625" viewBox="0 0 517 625" fill="none" xmlns="http://www.w3.org/2000/svg">
<path d="M322.742 29.6992L373.599 29.6992V80.4462H322.742V29.6992Z" fill="url(#paint0_linear)"/>
<path d="M168.217 105.819H197.557V135.096H168.217V105.819Z" fill="#0489F7"/>
<path opacity="0.5" d="M322.742 178.036H352.082V207.313H322.742V178.036Z" fill="#76E5C1"/>
<path opacity="0.5" d="M244.501 228.783H273.842V258.06H244.501V228.783Z" fill="#76E5C1"/>
<path opacity="0.5" d="M221.029 332.229H244.501V355.65H221.029V332.229Z" fill="#76E5C1"/>
<path d="M221.029 457.145H244.501V480.566H221.029V457.145Z" fill="#C4C4C4"/>
<path opacity="0.5" d="M271.886 357.603H295.358V381.024H271.886V357.603Z" fill="#76E5C1"/>
<path opacity="0.5" d="M371.642 382.976H395.114V406.397H371.642V382.976Z" fill="#76E5C1"/>
<path d="M125.185 328.325H172.129V375.169H125.185V328.325Z" fill="url(#paint1_linear)"/>
<path opacity="0.5" d="M221.029 381.024H269.93V429.82H221.029V381.024Z" fill="url(#paint2_linear)"/>
<path opacity="0.5" d="M322.742 332.229H371.643V381.024H322.742V332.229Z" fill="#76E5C1"/>
<path opacity="0.5" d="M271.886 283.434H320.786V332.229H271.886V283.434Z" fill="#76E5C1"/>
<path d="M169.195 30.6748V79.47H118.339V30.6748L169.195 30.6748Z" fill="url(#paint3_linear)"/>
<path opacity="0.5" d="M399.026 332.229H428.366V361.506H399.026V332.229Z" fill="#76E5C1"/>
<path opacity="0.5" d="M496.827 480.566H526.167V509.844H496.827V480.566Z" fill="#76E5C1"/>
<path d="M95.8447 582.061H119.317V605.482H95.8447V582.061Z" fill="#FF9C3F"/>
<path d="M5.86816 396.639H29.3403V420.06H5.86816L5.86816 396.639Z" fill="url(#paint4_linear)"/>
<path opacity="0.5" d="M172.129 480.566H221.03V529.362H172.129V480.566Z" fill="#F5CC64"/>
<defs>
<linearGradient id="paint0_linear" x1="368.708" y1="29.6992" x2="330.671" y2="80.5248" gradientUnits="userSpaceOnUse">
<stop stop-color="#CE41FF"/>
<stop offset="1" stop-color="#1781FF"/>
</linearGradient>
<linearGradient id="paint1_linear" x1="129.531" y1="375.169" x2="172.039" y2="333.439" gradientUnits="userSpaceOnUse">
<stop stop-color="#D2DC72"/>
<stop offset="1" stop-color="#07D7EE"/>
</linearGradient>
<linearGradient id="paint2_linear" x1="269.93" y1="381.024" x2="227.979" y2="429.909" gradientUnits="userSpaceOnUse">
<stop stop-color="#08D6EF"/>
<stop offset="1" stop-color="#CADC77"/>
</linearGradient>
<linearGradient id="paint3_linear" x1="144.784" y1="30.6748" x2="144.784" y2="79.47" gradientUnits="userSpaceOnUse">
<stop stop-color="#04BAFF"/>
<stop offset="1" stop-color="#C4C4C4" stop-opacity="0"/>
</linearGradient>
<linearGradient id="paint4_linear" x1="5.86816" y1="414.205" x2="33.2206" y2="397.562" gradientUnits="userSpaceOnUse">
<stop stop-color="#F6A69C"/>
<stop offset="1" stop-color="#A79BCF"/>
</linearGradient>
</defs>
</svg>
