<svg width="60" height="103" viewBox="0 0 60 103" fill="none" xmlns="http://www.w3.org/2000/svg">
<g clip-path="url(#clip0)">
<path d="M15.711 55.6514L13.5465 64.2994C13.3678 65.0148 13.7878 65.7432 14.4977 65.9489L23.1516 68.46C23.2764 68.4967 23.4058 68.5152 23.5359 68.5148C23.7747 68.5148 24.0095 68.4532 24.2171 68.3353L37.7858 60.6266C38.4001 60.2678 38.8415 59.6752 39.0085 58.9851C39.2735 57.6624 39.018 56.2888 38.2951 55.1488L34.9496 49.3964C33.6624 47.1855 31.506 46.1873 29.9353 47.0824H29.934L16.3652 54.7911C16.0389 54.9772 15.8026 55.2878 15.711 55.6514ZM31.2266 49.5064C31.8127 49.7534 32.2895 50.2037 32.5688 50.774L35.9143 56.5264C36.2328 57.0433 36.4085 57.6351 36.4235 58.2416L33.7746 59.7466L28.6664 50.9609L31.2266 49.5064ZM18.2382 56.8855L26.2747 52.3195L31.383 61.1056L23.3613 65.6634L16.5372 63.683L18.2382 56.8855Z" fill="#FF0420"/>
<path d="M59.5768 21.5765C59.5529 21.4174 59.5011 21.2637 59.4238 21.1226L59.4234 21.1212L59.4231 21.1209C59.3392 20.9833 59.2316 20.8615 59.1051 20.7612C59.0729 20.7344 59.0419 20.7097 59.0076 20.6861C58.9769 20.665 58.9521 20.6376 58.9195 20.6188L22.7935 -0.178573C22.7439 -0.198717 22.6931 -0.215724 22.6414 -0.229492C22.4778 -0.311449 22.2958 -0.349875 22.113 -0.341045C22.0229 -0.344151 21.9328 -0.337865 21.8441 -0.322288C21.7519 -0.301612 21.6621 -0.27118 21.5764 -0.231509C21.5219 -0.216869 21.4684 -0.198738 21.4163 -0.177229L15.4448 3.26643L15.4414 3.2678C15.4284 3.27517 15.419 3.28689 15.4064 3.2946C15.3957 3.3013 15.3834 3.30381 15.3729 3.31068L0.226816 13.2478C0.189277 13.2766 0.153286 13.3074 0.118993 13.3401C0.0722764 13.3752 0.0278484 13.4132 -0.0140211 13.454C-0.16341 13.6322 -0.276841 13.8376 -0.34807 14.0588C-0.362893 14.1284 -0.372299 14.199 -0.376206 14.2701C-0.380072 14.3116 -0.392578 14.3512 -0.392578 14.3934V73.0309C-0.392578 73.5212 -0.130458 73.9743 0.295332 74.2194L51.5554 103.734L51.5618 103.737C51.6252 103.769 51.691 103.796 51.7586 103.818C51.8558 103.871 51.965 103.898 52.0757 103.896C52.1311 103.907 52.187 103.914 52.2433 103.918H52.2447C52.4857 103.918 52.7226 103.855 52.9312 103.734L58.9195 100.288C58.9644 100.254 59.007 100.216 59.0469 100.176C59.1241 100.121 59.1953 100.059 59.2592 99.9893C59.3146 99.9227 59.3633 99.8508 59.4045 99.7746C59.4498 99.7012 59.4877 99.6235 59.5178 99.5428C59.5465 99.452 59.5654 99.3584 59.5743 99.2635C59.5889 99.2097 59.6 99.1549 59.6074 99.0996V21.8074C59.6074 21.7705 59.596 21.736 59.5931 21.6995C59.5899 21.6577 59.5839 21.6184 59.5768 21.5765ZM22.1057 2.59446L55.4786 21.8063L52.2438 23.6665L18.8793 4.45513L22.1057 2.59446ZM53.6191 26.0439L56.8558 24.1827V98.307L53.6191 100.17V26.0439ZM14.7536 7.00087V20.4486C14.7544 20.5314 14.7467 20.614 14.7307 20.6952C14.6453 20.6672 14.5633 20.63 14.4862 20.584L3.60322 14.3171L14.7536 7.00087ZM50.8674 100.169L2.35906 72.239V16.7704L13.1117 22.961C13.3749 23.1128 13.6552 23.2332 13.9466 23.3198C14.0386 23.3472 14.1277 23.3506 14.2191 23.3699C14.4001 23.4132 14.5847 23.4401 14.7706 23.4501C14.7945 23.4508 14.8197 23.4608 14.8435 23.4608C14.9794 23.4542 15.1146 23.4372 15.2479 23.4099C15.3237 23.3983 15.4022 23.3993 15.4763 23.3811C15.7085 23.3264 15.9316 23.2386 16.1388 23.1205C17.0478 22.5442 17.5712 21.5208 17.5052 20.4486V6.83338L50.8674 26.0429V100.169Z" fill="#FF0420"/>
</g>
<defs>
<clipPath id="clip0">
<rect width="60" height="103" fill="white"/>
</clipPath>
</defs>
</svg>
