<svg width="60" height="104" viewBox="0 0 60 104" fill="none" xmlns="http://www.w3.org/2000/svg">
<path d="M38.8443 51.8607C38.8443 58.6074 33.3457 64.0812 26.5574 64.0812C19.7691 64.0812 14.2705 58.6074 14.2705 51.8607C14.2705 45.1139 19.7691 39.6401 26.5574 39.6401C33.3457 39.6401 38.8443 45.1139 38.8443 51.8607Z" stroke="#FF0420"/>
<path d="M22.831 55.2413C22.0696 55.2413 21.4458 55.0631 20.9595 54.7067C20.4797 54.3439 20.2397 53.8283 20.2397 53.16C20.2397 53.02 20.2557 52.8481 20.2877 52.6444C20.3709 52.1862 20.4893 51.6356 20.6428 50.9927C21.0779 49.2424 22.2008 48.3672 24.0115 48.3672C24.5041 48.3672 24.9456 48.4499 25.3359 48.6154C25.7262 48.7745 26.0333 49.0164 26.2572 49.341C26.4811 49.6593 26.5931 50.0412 26.5931 50.4867C26.5931 50.6204 26.5771 50.7891 26.5451 50.9927C26.4491 51.5592 26.334 52.1098 26.1996 52.6444C25.9757 53.5164 25.5886 54.1688 25.0384 54.6017C24.4881 55.0281 23.7523 55.2413 22.831 55.2413ZM22.9654 53.8665C23.3237 53.8665 23.6276 53.7615 23.8771 53.5514C24.133 53.3414 24.3154 53.02 24.4241 52.5872C24.5713 51.9888 24.6833 51.4669 24.76 51.0214C24.7856 50.8877 24.7984 50.7509 24.7984 50.6108C24.7984 50.0316 24.4945 49.742 23.8867 49.742C23.5284 49.742 23.2213 49.847 22.9654 50.0571C22.7158 50.2671 22.5367 50.5886 22.4279 51.0214C22.3127 51.4478 22.1976 51.9698 22.0824 52.5872C22.0568 52.7145 22.044 52.8481 22.044 52.9881C22.044 53.5737 22.3511 53.8665 22.9654 53.8665Z" fill="#FF0420"/>
<path d="M27.0338 55.1459C26.9634 55.1459 26.909 55.1236 26.8706 55.079C26.8386 55.0281 26.829 54.9708 26.8418 54.9072L28.1662 48.7013C28.179 48.6313 28.2142 48.574 28.2718 48.5295C28.3294 48.4849 28.3902 48.4627 28.4541 48.4627H31.007C31.7172 48.4627 32.2866 48.6091 32.7153 48.9018C33.1504 49.1946 33.3679 49.6179 33.3679 50.1717C33.3679 50.3308 33.3487 50.4963 33.3103 50.6681C33.1504 51.4001 32.8273 51.9411 32.341 52.2912C31.8612 52.6413 31.2021 52.8163 30.364 52.8163H29.0684L28.6269 54.9072C28.6141 54.9772 28.5789 55.0345 28.5213 55.079C28.4637 55.1236 28.403 55.1459 28.339 55.1459H27.0338ZM30.4312 51.4987C30.6999 51.4987 30.9334 51.4255 31.1318 51.2792C31.3365 51.1328 31.4709 50.9227 31.5349 50.649C31.554 50.5408 31.5636 50.4453 31.5636 50.3626C31.5636 50.178 31.5093 50.038 31.4005 49.9425C31.2917 49.8407 31.1062 49.7898 30.8439 49.7898H29.6922L29.3275 51.4987H30.4312Z" fill="#FF0420"/>
<path d="M59.9693 21.864C59.9455 21.7053 59.8937 21.5521 59.8164 21.4113L59.8159 21.4099L59.8157 21.4096C59.7318 21.2723 59.6241 21.1508 59.4977 21.0508C59.4655 21.024 59.4344 20.9995 59.4002 20.9759C59.3695 20.9549 59.3447 20.9275 59.3121 20.9088L23.1861 0.163303C23.1365 0.14321 23.0857 0.126246 23.034 0.112511C22.8704 0.0307588 22.6884 -0.00757079 22.5055 0.0012375C22.4155 -0.00186143 22.3254 0.00440926 22.2367 0.0199474C22.1444 0.0405713 22.0547 0.0709272 21.969 0.110499C21.9145 0.125103 21.861 0.143189 21.8089 0.164644L15.8374 3.59971L15.834 3.60108C15.821 3.60843 15.8116 3.62011 15.7989 3.62781C15.7883 3.63449 15.776 3.63699 15.7655 3.64385L0.619394 13.5561C0.581855 13.5849 0.545864 13.6157 0.511571 13.6482C0.464855 13.6832 0.420427 13.7212 0.378557 13.7618C0.229168 13.9396 0.115738 14.1445 0.0445079 14.3651C0.0296855 14.4345 0.020279 14.505 0.0163723 14.5759C0.0125062 14.6173 0 14.6568 0 14.6989V73.19C0 73.679 0.26212 74.131 0.68791 74.3755L51.948 103.817L51.9544 103.82C52.0178 103.852 52.0836 103.879 52.1512 103.9C52.2484 103.953 52.3576 103.98 52.4683 103.978C52.5236 103.989 52.5796 103.996 52.6359 104H52.6372C52.8783 104 53.1151 103.937 53.3238 103.817L59.3121 100.379C59.357 100.345 59.3995 100.307 59.4395 100.267C59.5167 100.213 59.5878 100.15 59.6518 100.081C59.7072 100.015 59.7559 99.9429 59.7971 99.8669C59.8423 99.7937 59.8803 99.7162 59.9104 99.6357C59.9391 99.5451 59.958 99.4517 59.9668 99.3571C59.9815 99.3034 59.9925 99.2488 60 99.1936V22.0944C60 22.0576 59.9886 22.0232 59.9856 21.9868C59.9825 21.9451 59.9765 21.9058 59.9693 21.864ZM22.4982 2.92941L55.8712 22.0933L52.6364 23.9488L19.2719 4.78544L22.4982 2.92941ZM54.0117 26.3203L57.2484 24.4638V98.403L54.0117 100.261V26.3203ZM15.1462 7.32482V20.739C15.147 20.8215 15.1393 20.9039 15.1233 20.9849C15.0379 20.9571 14.9559 20.9199 14.8787 20.8741L3.99579 14.6228L15.1462 7.32482ZM51.26 100.26L2.75164 72.4V17.07L13.5043 23.2451C13.7675 23.3965 14.0478 23.5167 14.3392 23.603C14.4312 23.6304 14.5203 23.6337 14.6117 23.6529C14.7927 23.6962 14.9773 23.723 15.1632 23.733C15.1871 23.7336 15.2123 23.7437 15.2361 23.7437C15.372 23.7371 15.5072 23.7201 15.6405 23.6929C15.7163 23.6813 15.7948 23.6823 15.8689 23.6641C16.1011 23.6095 16.3242 23.522 16.5313 23.4042C17.4404 22.8293 17.9638 21.8085 17.8978 20.739V7.15775L51.26 26.3193V100.26Z" fill="#FF0420"/>
</svg>
