<svg width="380" height="529" viewBox="0 0 380 529" fill="none" xmlns="http://www.w3.org/2000/svg">
<path fill-rule="evenodd" clip-rule="evenodd" d="M258.964 293.181L324.252 0.000267048L327.36 0.693359L262.073 293.874L258.964 293.181Z" fill="white"/>
<path fill-rule="evenodd" clip-rule="evenodd" d="M258.965 293.181L544 342.575L543.456 345.715L258.421 296.321L258.965 293.181Z" fill="white"/>
<path fill-rule="evenodd" clip-rule="evenodd" d="M258.964 293.181L362.469 366.476L360.629 369.077L257.124 295.782L258.964 293.181Z" fill="white"/>
<path fill-rule="evenodd" clip-rule="evenodd" d="M258.965 293.181L165.015 479.605L162.171 478.17L256.122 291.746L258.965 293.181Z" fill="white"/>
<path fill-rule="evenodd" clip-rule="evenodd" d="M258.965 293.181L88.5804 529L85.9995 527.133L256.384 291.314L258.965 293.181Z" fill="white"/>
<path fill-rule="evenodd" clip-rule="evenodd" d="M258.964 293.181L147.498 353.729L145.979 350.928L257.445 290.38L258.964 293.181Z" fill="white"/>
<path fill-rule="evenodd" clip-rule="evenodd" d="M258.965 293.181L0.999965 369.663L0.0952148 366.607L258.06 290.125L258.965 293.181Z" fill="white"/>
<path fill-rule="evenodd" clip-rule="evenodd" d="M258.965 293.181L112.466 35.0542L115.235 33.4805L261.734 291.607L258.965 293.181Z" fill="white"/>
<path d="M263.742 43.021H305.144V84.4487H263.742V43.021Z" fill="url(#paint0_linear)"/>
<path d="M137.944 105.163H161.83V129.063H137.944V105.163Z" fill="#0489F7"/>
<path opacity="0.5" d="M263.742 164.118H287.628V188.018H263.742V164.118Z" fill="#76E5C1"/>
<path opacity="0.5" d="M200.047 205.545H223.933V229.446H200.047V205.545Z" fill="#76E5C1"/>
<path opacity="0.5" d="M180.938 289.994H200.047V309.115H180.938V289.994Z" fill="#76E5C1"/>
<path d="M180.938 391.97H200.047V411.09H180.938V391.97Z" fill="#C4C4C4"/>
<path opacity="0.5" d="M222.34 310.708H241.449V329.828H222.34V310.708Z" fill="#76E5C1"/>
<path opacity="0.5" d="M303.551 331.422H322.66V350.542H303.551V331.422Z" fill="#76E5C1"/>
<path d="M102.912 286.807H141.129V325.048H102.912V286.807Z" fill="url(#paint1_linear)"/>
<path opacity="0.5" d="M180.938 329.828H220.748V369.662H180.938V329.828Z" fill="url(#paint2_linear)"/>
<path opacity="0.5" d="M263.742 289.994H303.551V329.828H263.742V289.994Z" fill="#76E5C1"/>
<path opacity="0.5" d="M222.34 250.16H262.149V289.994H222.34V250.16Z" fill="#76E5C1"/>
<path d="M138.74 43.8179V83.6522H97.3387V43.8179H138.74Z" fill="url(#paint3_linear)"/>
<path opacity="0.5" d="M325.844 289.994H349.73V313.895H325.844V289.994Z" fill="#76E5C1"/>
<path d="M79.0264 493.946H98.1349V513.066H79.0264V493.946Z" fill="#FF9C3F"/>
<path d="M5.77734 342.575H24.8858V361.696H5.77734V342.575Z" fill="url(#paint4_linear)"/>
<path opacity="0.5" d="M141.129 411.09H180.938V450.925H141.129V411.09Z" fill="#F5CC64"/>
<defs>
<linearGradient id="paint0_linear" x1="301.163" y1="43.021" x2="270.087" y2="84.43" gradientUnits="userSpaceOnUse">
<stop stop-color="#CE41FF"/>
<stop offset="1" stop-color="#1781FF"/>
</linearGradient>
<linearGradient id="paint1_linear" x1="106.451" y1="325.048" x2="141.15" y2="291.078" gradientUnits="userSpaceOnUse">
<stop stop-color="#D2DC72"/>
<stop offset="1" stop-color="#07D7EE"/>
</linearGradient>
<linearGradient id="paint2_linear" x1="220.748" y1="329.828" x2="186.487" y2="369.641" gradientUnits="userSpaceOnUse">
<stop stop-color="#08D6EF"/>
<stop offset="1" stop-color="#CADC77"/>
</linearGradient>
<linearGradient id="paint3_linear" x1="118.868" y1="43.8179" x2="118.868" y2="83.6522" gradientUnits="userSpaceOnUse">
<stop stop-color="#04BAFF"/>
<stop offset="1" stop-color="#C4C4C4" stop-opacity="0"/>
</linearGradient>
<linearGradient id="paint4_linear" x1="5.77734" y1="356.916" x2="28.0781" y2="343.384" gradientUnits="userSpaceOnUse">
<stop stop-color="#F6A69C"/>
<stop offset="1" stop-color="#A79BCF"/>
</linearGradient>
</defs>
</svg>
