<svg width="1078" height="190" viewBox="0 0 1078 190" fill="none" xmlns="http://www.w3.org/2000/svg">
<path fill-rule="evenodd" clip-rule="evenodd" d="M1065.08 7.08996C1069.73 8.78266 1072.34 11.0089 1073.37 13.5741C1075.16 17.9814 1074.29 23.1012 1070.55 29.0722C1066.8 35.0546 1060.34 41.6107 1051.53 48.6088C1033.93 62.5898 1007.42 77.9815 976.073 93.7822C913.415 125.368 831.852 158.386 764.671 184.826L766.024 188.345C833.196 161.909 914.907 128.835 977.737 97.1627C1009.14 81.3344 1035.92 65.8053 1053.83 51.5797C1062.78 44.4747 1069.63 37.606 1073.7 31.0931C1077.78 24.5687 1079.25 18.1225 1076.83 12.1439C1075.21 8.15146 1071.44 5.39217 1066.34 3.53647C1061.23 1.67182 1054.47 0.601539 1046.35 0.192841C1030.1 -0.625352 1007.95 1.19079 981.481 5.05617C928.516 12.7911 857.902 28.7905 781.885 48.7155C664.31 79.5335 533.67 119.781 435.147 153.484C453.156 145.302 470.901 136.508 484.359 128.273C492.466 123.312 499.138 118.482 503.367 114.041C505.478 111.824 507.088 109.595 507.91 107.39C508.756 105.125 508.79 102.806 507.602 100.68C506.464 98.6423 504.225 97.5141 501.662 96.8873C499.045 96.2474 495.698 96.0321 491.773 96.1426C483.908 96.3642 473.309 97.9115 460.683 100.43C435.409 105.472 401.668 114.48 364.716 124.916C346.406 130.087 327.305 135.608 308.043 141.177C252.383 157.269 195.366 173.753 152.136 183.296C152.962 182.983 153.812 182.662 154.685 182.332C159.115 180.658 164.112 178.769 169.353 176.735C181.798 171.902 195.533 166.276 205.821 160.893C210.95 158.21 215.333 155.531 218.281 152.981C219.75 151.711 220.967 150.384 221.715 149.011C222.478 147.608 222.828 145.996 222.229 144.378C221.578 142.621 220.098 141.533 218.408 140.882C216.725 140.233 214.607 139.922 212.214 139.837C207.414 139.667 201.008 140.399 193.577 141.744C178.683 144.44 159.238 149.684 139.349 155.606C119.447 161.532 99.0345 168.158 82.1943 173.632L81.3204 173.916C73.6485 176.411 66.7674 178.648 61.0495 180.458C62.7666 179.412 64.4251 178.311 65.8731 177.193C67.2874 176.101 68.569 174.94 69.5132 173.742C70.4346 172.573 71.2024 171.157 71.2024 169.59V169.018L70.889 168.542C70.2847 167.625 69.3055 167.197 68.5039 166.974C67.653 166.737 66.648 166.632 65.5755 166.606C63.4204 166.553 60.641 166.811 57.5044 167.267C51.21 168.182 43.1581 169.942 35.1028 171.894C27.036 173.849 18.9136 176.009 12.4672 177.734L11.1821 178.078C5.32574 179.645 1.20608 180.748 -2.81593e-05 180.943L0.589699 184.673C1.99249 184.445 6.23493 183.309 11.8032 181.818L13.4211 181.385C19.8671 179.66 27.9519 177.511 35.9719 175.567C44.0033 173.621 51.9181 171.895 58.035 171.005C61.1041 170.559 63.6415 170.336 65.4851 170.381C66.1946 170.399 66.7507 170.455 67.1678 170.535C67.0353 170.78 66.8502 171.064 66.5956 171.387C65.9192 172.245 64.9032 173.191 63.609 174.191C61.0256 176.186 57.6052 178.189 54.3402 179.946C52.2842 181.052 50.4459 181.981 48.8927 182.765C47.9034 183.265 47.0298 183.707 46.2892 184.098C45.8481 184.331 45.4535 184.548 45.1476 184.736C44.9971 184.828 44.8336 184.935 44.6849 185.049C44.6138 185.103 44.2617 185.362 44.0303 185.79C43.9026 186.027 43.6339 186.65 43.9118 187.403C44.1915 188.161 44.8044 188.454 45.0618 188.549C45.5067 188.711 45.9338 188.675 46.0504 188.665L46.0616 188.664C46.4213 188.635 46.8804 188.54 47.3702 188.424C53.0116 187.087 65.9151 182.892 82.1413 177.616L83.3357 177.228C100.181 171.752 120.551 165.14 140.403 159.229C160.269 153.313 179.552 148.119 194.234 145.461C201.592 144.13 207.686 143.456 212.083 143.611C214.289 143.69 215.944 143.974 217.08 144.412C218.21 144.847 218.598 145.336 218.734 145.704C218.835 145.975 218.869 146.412 218.446 147.188C218.007 147.994 217.168 148.975 215.856 150.11C213.243 152.371 209.168 154.89 204.107 157.538C194.019 162.816 180.455 168.379 168.016 173.208C162.888 175.199 157.936 177.071 153.512 178.744C147.269 181.104 142.077 183.067 138.92 184.407C137.589 184.973 136.492 185.48 135.822 185.894C135.648 186.001 135.453 186.133 135.273 186.287C135.147 186.395 134.788 186.709 134.593 187.223C134.477 187.526 134.392 187.972 134.53 188.475C134.669 188.982 134.973 189.324 135.239 189.528C135.684 189.871 136.167 189.942 136.335 189.966C136.773 190.026 137.294 189.998 137.784 189.951C138.316 189.901 138.973 189.811 139.752 189.685C141.313 189.432 143.45 189.018 146.222 188.434C190.3 179.146 250.583 161.718 309.193 144.773C328.426 139.213 347.479 133.705 365.719 128.553C402.674 118.117 436.288 109.146 461.405 104.135C473.975 101.628 484.33 100.13 491.877 99.9178C495.658 99.8113 498.631 100.031 500.786 100.558C502.994 101.098 503.979 101.868 504.353 102.538C504.88 103.481 504.965 104.592 504.419 106.056C503.851 107.579 502.626 109.376 500.68 111.42C496.796 115.499 490.461 120.125 482.428 125.041C466.398 134.85 444.08 145.529 422.443 155.029C404.159 163.056 386.411 170.219 373.45 175.274C368.084 177.241 362.901 179.164 357.915 181.038C355.547 181.928 354.077 182.496 353.418 182.766C353.264 182.829 353.11 182.894 352.998 182.948C352.968 182.962 352.916 182.987 352.858 183.02C352.827 183.038 352.758 183.08 352.717 183.107C352.651 183.154 352.47 183.306 352.361 183.42C352.126 183.749 351.917 185.046 352.308 185.884C352.752 186.28 353.506 186.557 353.721 186.573C353.821 186.572 353.977 186.559 354.035 186.552C354.074 186.545 354.136 186.534 354.165 186.528C354.384 186.48 354.793 186.339 355.176 186.205C356.99 185.574 361.622 183.869 368.182 181.354C370.198 180.581 372.399 179.731 374.758 178.811C474.764 142.157 638.624 90.1674 782.821 52.3715C858.796 32.4574 929.253 16.4992 982.014 8.79414C1008.41 4.93949 1030.28 3.16494 1046.17 3.96486C1054.12 4.36523 1060.46 5.40621 1065.08 7.08996Z" fill="url(#paint0_linear)"/>
<defs>
<linearGradient id="paint0_linear" x1="539" y1="0" x2="539" y2="190" gradientUnits="userSpaceOnUse">
<stop stop-color="#FF3E61"/>
<stop offset="0.265738" stop-color="#FF6E2F"/>
<stop offset="0.470967" stop-color="#FF9C3F"/>
<stop offset="0.66051" stop-color="#FFC255"/>
<stop offset="0.878811" stop-color="#66C1C2"/>
<stop offset="1" stop-color="#05B9FE"/>
</linearGradient>
</defs>
</svg>
