<svg width="105" height="108" viewBox="0 0 105 108" fill="none" xmlns="http://www.w3.org/2000/svg">
<path fill-rule="evenodd" clip-rule="evenodd" d="M86.5942 29.7552C86.4944 29.4525 86.3897 29.1503 86.2799 28.8487C80.4809 12.9161 62.8553 4.70424 46.9121 10.5071C30.9689 16.3099 22.7454 33.9301 28.5445 49.8627C28.6542 50.1643 28.7682 50.4631 28.8864 50.7591L28.8723 50.7643L40.3568 82.3175L98.0922 61.3035L86.6078 29.7503L86.5942 29.7552Z" fill="#FF0420"/>
<path fill-rule="evenodd" clip-rule="evenodd" d="M75.4411 55.2543C75.3413 54.9516 75.2366 54.6494 75.1268 54.3478C69.3278 38.4151 51.7023 30.2033 35.7591 36.0061C19.8159 41.809 11.5924 59.4291 17.3914 75.3617C17.5012 75.6633 17.6152 75.9622 17.7333 76.2582L17.7195 76.2632L29.2039 107.816L86.9393 86.8024L75.4549 55.2492L75.4411 55.2543Z" fill="black"/>
</svg>
