<svg width="130" height="130" viewBox="0 0 130 130" fill="none" xmlns="http://www.w3.org/2000/svg">
<g clip-path="url(#clip0)">
<path d="M33.8857 123C31.683 122.4 29.5805 121.601 27.9786 119.902C25.9762 117.704 25.1752 115.206 25.1752 112.208C25.1752 91.1245 25.1752 70.0407 25.1752 48.957C25.1752 46.259 25.1752 43.5611 25.1752 40.8632C25.1752 40.4635 25.1752 40.0638 25.2753 39.764C25.4756 38.8647 26.1764 38.2652 27.0775 38.2652C27.9786 38.2652 28.6794 38.7648 28.8797 39.764C28.9798 40.2637 28.9798 40.7633 28.9798 41.2629C28.9798 64.8447 28.9798 88.4266 28.9798 112.008C28.9798 116.805 31.3827 119.203 36.1884 119.203C63.6214 119.203 90.9543 119.203 118.387 119.203C121.891 119.203 124.294 117.504 125.095 114.507C125.296 113.807 125.296 113.108 125.296 112.408C125.296 81.9316 125.296 51.3551 125.296 20.8786C125.296 16.4819 122.893 14.0838 118.387 14.0838C114.282 14.0838 110.277 14.0838 106.072 14.0838C106.072 15.6826 106.072 17.1814 106.072 18.7802C106.473 18.7802 106.974 18.8801 107.374 18.8801C110.378 18.8801 113.381 18.8801 116.385 18.8801C118.287 18.8801 118.888 19.4796 118.888 21.3782C118.888 28.073 118.888 34.7679 118.888 41.4627C118.888 63.3459 118.888 85.2291 118.888 107.112C118.888 109.91 118.487 110.31 115.584 110.31C112.28 110.31 108.976 110.31 105.672 110.31C105.372 110.31 104.971 110.31 104.671 110.31C103.369 110.21 102.668 109.41 102.668 108.311C102.768 107.212 103.469 106.613 104.771 106.513C107.674 106.513 110.578 106.513 113.381 106.513C113.882 106.513 114.282 106.513 114.883 106.513C114.883 78.5342 114.883 50.6557 114.883 22.6772C111.98 22.6772 109.176 22.6772 106.273 22.6772C105.972 22.6772 105.672 23.0769 105.572 23.3766C104.471 26.1745 102.368 27.6733 99.2643 27.6733C84.4464 27.6733 69.5285 27.6733 54.7107 27.6733C51.7071 27.6733 49.6046 26.1745 48.4031 23.3766C48.303 23.0769 47.8024 22.6772 47.502 22.6772C44.6987 22.5772 41.8953 22.6772 38.9918 22.6772C38.9918 50.6557 38.9918 78.5342 38.9918 106.513C39.5925 106.513 40.0931 106.513 40.5937 106.513C58.8156 106.513 77.0375 106.513 95.1593 106.513C95.5598 106.513 95.9603 106.513 96.2607 106.513C97.6623 106.513 98.4633 107.212 98.4633 108.411C98.4633 109.51 97.6623 110.21 96.2607 110.31C95.9603 110.31 95.6599 110.31 95.3596 110.31C76.2366 110.31 57.2137 110.31 38.0907 110.31C35.4876 110.31 34.987 109.81 34.987 107.212C34.987 78.7341 34.987 50.3559 34.987 21.8778C34.987 19.2798 35.3875 18.8801 37.9906 18.8801C41.2946 18.8801 44.4984 18.8801 47.9025 18.8801C47.9025 17.2813 47.9025 15.7825 47.9025 14.1837C47.6022 14.1837 47.4019 14.0838 47.1016 14.0838C43.0968 14.0838 39.0919 14.0838 35.1872 14.0838C31.2826 14.0838 28.7795 16.6818 28.7795 20.5788C28.7795 24.3759 28.7795 28.1729 28.7795 31.97C28.7795 32.6695 28.4792 33.5688 27.9786 33.9685C27.5781 34.3682 26.5769 34.4681 26.1764 34.1683C25.5757 33.7686 25.0751 32.9693 25.0751 32.2698C24.975 29.472 24.975 26.6741 25.0751 23.8763C25.0751 22.1776 25.0751 20.3789 25.2753 18.6802C25.8761 13.9839 29.7807 10.3866 34.4864 10.2867C38.5913 10.1868 42.5962 10.1868 46.7011 10.1868C47.2017 10.1868 47.6022 10.1868 48.1028 10.1868C48.303 9.28747 48.4031 8.58801 48.6034 7.88855C49.5045 5.29055 51.8072 3.69178 54.8108 3.69178C57.9146 3.69178 61.1184 3.69178 64.2221 3.69178C64.923 3.69178 65.2233 3.59185 65.3235 2.89239C66.5249 -2.60338 69.929 -5.80092 75.4356 -6.80015C75.5357 -6.80015 75.6359 -6.90008 75.736 -7C76.5369 -7 77.438 -7 78.239 -7C78.4392 -6.90008 78.5393 -6.90008 78.7396 -6.80015C82.5442 -6.20061 85.4477 -4.30207 87.3499 -1.00461C88.1509 0.394313 88.5514 1.99308 89.2522 3.69178C89.5526 3.69178 90.0532 3.69178 90.4537 3.69178C93.4573 3.69178 96.3608 3.69178 99.3644 3.69178C102.468 3.69178 104.971 5.59032 105.672 8.48809C105.772 9.08763 105.872 9.58724 105.972 10.2867C106.573 10.2867 106.974 10.2867 107.474 10.2867C111.078 10.2867 114.783 10.1868 118.387 10.2867C120.089 10.3866 121.791 10.5865 123.293 11.2859C127.398 13.1845 129 16.6818 129 21.0784C129 51.455 129 81.7318 129 112.108C129 112.708 129 113.407 128.9 114.007C128.7 115.905 127.999 117.704 126.797 119.203C125.095 121.401 122.793 122.4 120.29 123C91.555 123 62.7203 123 33.8857 123ZM77.1377 23.7763C84.4464 23.7763 91.7552 23.7763 98.9639 23.7763C101.267 23.7763 102.068 22.9769 102.068 20.6787C102.068 17.3812 102.068 13.9839 102.068 10.6864C102.068 8.28824 101.167 7.48886 98.8638 7.48886C95.0592 7.48886 91.3548 7.48886 87.5502 7.48886C86.3487 7.48886 85.6479 6.98924 85.4477 5.79016C85.3475 5.29055 85.3475 4.79093 85.2474 4.29132C84.947 1.09377 83.245 -1.20446 80.3415 -2.50346C77.438 -3.80246 74.6347 -3.40277 72.0315 -1.50423C70.0291 0.0945435 69.0279 2.29285 68.9278 4.99078C68.8277 6.88932 68.227 7.38893 66.4248 7.38893C62.7203 7.38893 59.0159 7.38893 55.4116 7.38893C53.0087 7.38893 52.2077 8.28824 52.2077 10.5865C52.2077 13.784 52.2077 16.9816 52.2077 20.279C52.2077 23.0769 52.9085 23.7763 55.7119 23.7763C62.8205 23.7763 69.929 23.7763 77.1377 23.7763Z" fill="#2A80F0"/>
<path d="M91.4457 77C87.4049 77 83.3642 77 79.4245 77C77.9092 77 77 76.2632 77 75.1053C77 73.8421 77.9092 73 79.4245 73C87.506 73 95.4864 73 103.568 73C105.184 73 106.093 73.8421 105.992 75.1053C105.992 76.3684 105.083 77 103.568 77C99.4262 77 95.3854 77 91.4457 77Z" fill="#2A80F0"/>
<path d="M91.4665 46C87.4318 46 83.3971 46 79.4633 46C78.7572 46 77.7485 45.5789 77.345 44.9474C76.5381 44 77.2442 42.5263 78.4546 42.1053C78.858 42 79.3624 42 79.8667 42C87.6336 42 95.4004 42 103.167 42C103.47 42 103.672 42 103.974 42C105.285 42.1053 106.092 42.9474 105.992 44.1053C105.992 45.1579 105.185 46 103.974 46C102.259 46 100.545 46 98.8299 46C96.4091 46 93.9882 46 91.4665 46Z" fill="#2A80F0"/>
<path d="M91.5699 89.0261C95.5331 89.0261 99.5979 89.0261 103.561 89.0261C105.085 89.0261 106 89.7582 106 90.9085C106 92.1634 105.187 93 103.561 93C95.4314 93 87.4034 93 79.2738 93C78.2576 93 77.2413 92.7908 77.0381 91.7451C76.9365 91.1176 77.0381 90.281 77.343 89.8627C77.7494 89.4444 78.5624 89.1307 79.2738 89.1307C83.3386 88.9216 87.4034 89.0261 91.5699 89.0261Z" fill="#2A80F0"/>
<path d="M91.5195 62C87.6716 62 83.7223 62 79.8744 62C79.3681 62 78.8617 62 78.3554 61.7909C77.4441 61.4771 76.8365 60.7451 77.039 59.8039C77.2415 59.1765 77.9504 58.549 78.558 58.1307C78.8617 57.9216 79.3681 58.0261 79.7731 58.0261C87.5703 58.0261 95.3675 58.0261 103.165 58.0261C103.57 58.0261 103.975 58.0261 104.279 58.0261C105.291 58.1307 105.899 58.7582 106 59.9085C106 60.9542 105.494 61.6863 104.481 61.8954C104.076 62 103.57 62 103.063 62C99.2154 62 95.3675 62 91.5195 62Z" fill="#2A80F0"/>
<path d="M51.7284 44.4988C53.1111 43.5868 54.2963 42.5734 55.5802 41.864C58.0494 40.5465 60.6173 39.3304 63.1852 38.2157C64.3704 37.709 65.358 38.1143 65.8519 39.2291C66.2469 40.2425 65.8519 41.3573 64.6667 41.7626C60.6173 43.2827 56.8642 45.5122 53.4074 48.2485C51.2346 49.9713 48.3704 48.5525 48.0741 45.8163C47.9753 44.6002 47.9753 43.3841 48.0741 42.168C48.1728 40.9519 49.0617 40.2425 50.0494 40.2425C51.037 40.3438 51.7284 41.0532 51.8272 42.2693C51.8272 42.6747 51.8272 43.0801 51.8272 43.3841C51.7284 43.6881 51.7284 44.0935 51.7284 44.4988Z" fill="#2A80F0"/>
<path d="M51.743 76.5443C53.8115 75.2105 55.683 73.8768 57.7515 72.7482C59.426 71.8249 61.199 71.1067 62.972 70.2859C64.351 69.6704 65.336 70.0807 65.8285 71.2093C66.321 72.3379 65.73 73.3638 64.351 73.8768C60.411 75.4157 56.865 77.3651 53.6145 80.1351C52.531 81.0585 51.2505 81.2637 49.97 80.6481C48.591 80.0326 48 78.8014 48 77.3651C48 76.4417 48 75.4157 48 74.4924C48.0985 73.1586 48.8865 72.2353 49.97 72.2353C51.0535 72.2353 51.743 73.1586 51.743 74.4924C51.743 75.1079 51.743 75.7235 51.743 76.5443Z" fill="#2A80F0"/>
<path d="M51.8063 60.4281C54.0655 58.9802 56.2265 57.5322 58.4857 56.2911C59.9591 55.4637 61.6289 54.8432 63.2005 54.2226C64.3793 53.7055 65.3615 54.1192 65.8527 55.1535C66.2456 56.1877 65.8527 57.3254 64.6739 57.7391C60.6467 59.2905 56.9141 61.5658 53.4761 64.2549C51.3151 66.0131 48.3683 64.4617 48.0737 61.6692C47.9754 60.5316 47.9754 59.2905 48.0737 58.1528C48.1719 56.9117 48.9577 56.1877 50.0382 56.2911C51.0205 56.3946 51.708 57.1185 51.8063 58.2562C51.8063 58.6699 51.8063 59.0836 51.8063 59.3939C51.8063 59.8076 51.8063 60.1179 51.8063 60.4281Z" fill="#2A80F0"/>
<path d="M51.8275 91.4586C54.0993 90.0263 56.1735 88.6962 58.2478 87.4685C59.8282 86.5478 61.5073 85.9339 63.1865 85.2177C64.4705 84.7062 65.4583 85.1154 65.8533 86.2408C66.2484 87.2639 65.8533 88.3893 64.5693 88.7986C60.5196 90.3332 56.8649 92.4817 53.5066 95.244C51.3336 96.9833 48.3704 95.551 48.0741 92.6863C47.9753 91.5609 47.9753 90.3332 48.0741 89.2078C48.1729 87.9801 48.963 87.2639 50.0496 87.2639C51.1361 87.2639 51.8275 88.0824 51.8275 89.3101C51.8275 90.0263 51.8275 90.7424 51.8275 91.4586Z" fill="#2A80F0"/>
<path d="M76.9662 20C75.0125 19.8912 73.1617 19.2382 71.7222 17.6057C70.7968 16.6262 70.7968 15.5379 71.5165 14.6673C72.2363 13.7966 73.2645 13.7966 74.2928 14.5584C76.4521 16.2997 77.4803 16.2997 79.7424 14.5584C80.7707 13.7966 81.7989 13.7966 82.5187 14.6673C83.2384 15.5379 83.1356 16.6262 82.313 17.6057C80.9763 19.0205 78.9198 20 76.9662 20Z" fill="#2A80F0"/>
<path d="M81 4.95606C81 6.61639 79.4091 8 77.5 8C75.5909 8 74 6.52415 74 4.95606C74 3.38797 75.697 2.00436 77.5 2.00436C79.303 1.91212 81 3.29573 81 4.95606Z" fill="#2A80F0"/>
<path d="M63 14.5C63 15.0303 63 15.6667 63 16.197C62.894 17.3636 62.1523 17.8939 61.0927 18C60.0331 18 59.1854 17.4697 59.0795 16.4091C58.9735 15.1364 58.9735 13.8636 59.0795 12.5909C59.1854 11.5303 60.0331 11 61.0927 11C62.1523 11.1061 62.7881 11.6364 62.894 12.803C63 13.3333 63 13.8636 63 14.5Z" fill="#2A80F0"/>
<path d="M91 14.3998C91 13.8704 91 13.341 91 12.8115C91.106 11.7527 91.7417 11.1174 92.8013 11.0115C93.9669 10.9056 94.8146 11.5409 94.9205 12.5998C95.0265 13.8704 95.0265 15.1411 94.9205 16.3058C94.8146 17.4706 93.9669 18 92.8013 18C91.7417 17.8941 91 17.1529 91 16.094C91 15.4587 91 14.9293 91 14.3998Z" fill="#2A80F0"/>
</g>
<defs>
<clipPath id="clip0">
<rect width="130" height="130" fill="white"/>
</clipPath>
</defs>
</svg>
