<svg width="150" height="150" viewBox="0 0 150 150" fill="none" xmlns="http://www.w3.org/2000/svg">
<circle cx="75" cy="75" r="72.5" stroke="#E10019" stroke-width="5"/>
<path d="M53.1983 95C48.7326 95 45.0738 93.937 42.2218 91.8111C39.4073 89.6472 38 86.5722 38 82.5861C38 81.7509 38.0938 80.7259 38.2815 79.5111C38.7693 76.7778 39.4635 73.494 40.3642 69.6597C42.916 59.2199 49.5019 54 60.122 54C63.0116 54 65.6009 54.4935 67.89 55.4806C70.1792 56.4296 71.9804 57.8722 73.2939 59.8083C74.6073 61.7065 75.264 63.9843 75.264 66.6417C75.264 67.4389 75.1702 68.4449 74.9826 69.6597C74.4197 73.0384 73.7442 76.3222 72.9561 79.5111C71.6427 84.712 69.3723 88.6032 66.145 91.1847C62.9177 93.7282 58.6022 95 53.1983 95ZM53.9864 86.8C56.0879 86.8 57.8704 86.1736 59.3339 84.9208C60.835 83.6681 61.9045 81.7509 62.5425 79.1694C63.4056 75.6009 64.0623 72.488 64.5126 69.8306C64.6627 69.0333 64.7378 68.2171 64.7378 67.3819C64.7378 63.9273 62.9553 62.2 59.3902 62.2C57.2887 62.2 55.4875 62.8264 53.9864 64.0792C52.5228 65.3319 51.4721 67.2491 50.8341 69.8306C50.1587 72.3741 49.4832 75.487 48.8077 79.1694C48.6576 79.9287 48.5825 80.7259 48.5825 81.5611C48.5825 85.0537 50.3838 86.8 53.9864 86.8Z" fill="#E10019"/>
<path d="M77.8485 94.4306C77.4357 94.4306 77.1168 94.2977 76.8916 94.0319C76.704 93.7282 76.6477 93.3866 76.7227 93.0069L84.4908 55.9931C84.5658 55.5755 84.7722 55.2338 85.11 54.9681C85.4477 54.7023 85.8042 54.5694 86.1795 54.5694H101.153C105.318 54.5694 108.658 55.4426 111.172 57.1889C113.724 58.9352 115 61.4597 115 64.7625C115 65.7116 114.887 66.6986 114.662 67.7236C113.724 72.0894 111.829 75.3162 108.977 77.4042C106.162 79.4921 102.297 80.5361 97.3812 80.5361H89.782L87.1927 93.0069C87.1176 93.4245 86.9113 93.7662 86.5735 94.0319C86.2358 94.2977 85.8793 94.4306 85.504 94.4306H77.8485ZM97.7752 72.6778C99.3514 72.6778 100.721 72.2412 101.884 71.3681C103.085 70.4949 103.873 69.2421 104.249 67.6097C104.361 66.9644 104.417 66.3949 104.417 65.9014C104.417 64.8005 104.098 63.9653 103.461 63.3958C102.823 62.7884 101.734 62.4847 100.196 62.4847H93.4409L91.3019 72.6778H97.7752Z" fill="#E10019"/>
</svg>
