<svg width="20" height="22" viewBox="0 0 20 22" fill="none" xmlns="http://www.w3.org/2000/svg">
<path d="M7.93133 9.14844C7.27991 9.14844 6.76562 9.69368 6.76562 10.3589C6.76562 11.0241 7.29134 11.5693 7.93133 11.5693C8.58275 11.5693 9.09704 11.0241 9.09704 10.3589C9.10846 9.69368 8.58275 9.14844 7.93133 9.14844ZM12.1027 9.14844C11.4513 9.14844 10.937 9.69368 10.937 10.3589C10.937 11.0241 11.4627 11.5693 12.1027 11.5693C12.7542 11.5693 13.2684 11.0241 13.2684 10.3589C13.2684 9.69368 12.7542 9.14844 12.1027 9.14844Z" fill="#FF0420"/>
<path d="M17.6571 0H2.34286C1.05143 0 0 1.00324 0 2.24639V16.9897C0 18.2328 1.05143 19.2361 2.34286 19.2361H15.3029L14.6971 17.2187L16.16 18.5164L17.5429 19.7377L20 21.8096V2.24639C20 1.00324 18.9486 0 17.6571 0ZM13.2457 14.2417C13.2457 14.2417 12.8343 13.7728 12.4914 13.3584C13.9886 12.9549 14.56 12.0607 14.56 12.0607C14.0914 12.3551 13.6457 12.5623 13.2457 12.7041C12.6743 12.9331 12.1257 13.0858 11.5886 13.173C10.6098 13.345 9.60595 13.3413 8.62857 13.1621C8.05477 13.055 7.49243 12.898 6.94857 12.6932C6.66189 12.588 6.38314 12.4641 6.11429 12.3224C6.08 12.3006 6.04571 12.2897 6.01143 12.2679C5.98857 12.257 5.97714 12.2461 5.96571 12.2352C5.76 12.1261 5.64571 12.0498 5.64571 12.0498C5.64571 12.0498 6.19429 12.9222 7.64571 13.3366C7.30286 13.751 6.88 14.2417 6.88 14.2417C4.35429 14.1653 3.39429 12.5841 3.39429 12.5841C3.39429 9.0728 5.04 6.22664 5.04 6.22664C6.68571 5.04892 8.25143 5.08164 8.25143 5.08164L8.36571 5.2125C6.30857 5.77955 5.36 6.64103 5.36 6.64103C5.36 6.64103 5.61143 6.51017 6.03429 6.32479C7.25714 5.81226 8.22857 5.6705 8.62857 5.63778C8.69714 5.62688 8.75429 5.61597 8.82286 5.61597C10.8047 5.36003 12.8202 5.71943 14.5714 6.64103C14.5714 6.64103 13.6686 5.82317 11.7257 5.25612L11.8857 5.08164C11.8857 5.08164 13.4514 5.04892 15.0971 6.22664C15.0971 6.22664 16.7429 9.0728 16.7429 12.5841C16.7429 12.5841 15.7714 14.1653 13.2457 14.2417Z" fill="#FF0420"/>
</svg>
