<svg width="15" height="12" viewBox="0 0 15 12" fill="none" xmlns="http://www.w3.org/2000/svg">
<path fill-rule="evenodd" clip-rule="evenodd" d="M-1.5875e-07 6C-1.64764e-07 5.77271 0.098761 5.55473 0.274557 5.39402C0.450352 5.2333 0.688782 5.14301 0.937395 5.14301L11.7981 5.14301L7.77288 1.46482C7.68573 1.38514 7.61659 1.29055 7.56942 1.18644C7.52225 1.08233 7.49798 0.970754 7.49798 0.858071C7.49798 0.745387 7.52225 0.633807 7.56942 0.529701C7.61659 0.425595 7.68573 0.331003 7.77288 0.251323C7.86004 0.171644 7.9635 0.108439 8.07738 0.0653166C8.19125 0.0221943 8.3133 3.53331e-07 8.43656 3.4443e-07C8.55981 3.35529e-07 8.68186 0.0221942 8.79574 0.0653165C8.90961 0.108439 9.01308 0.171644 9.10023 0.251323L14.7246 5.39325C14.8119 5.47286 14.8812 5.56743 14.9284 5.67154C14.9757 5.77566 15 5.88728 15 6C15 6.11272 14.9757 6.22434 14.9284 6.32845C14.8812 6.43257 14.8119 6.52714 14.7246 6.60675L9.10023 11.7487C9.01308 11.8284 8.90961 11.8916 8.79574 11.9347C8.68186 11.9778 8.55981 12 8.43656 12C8.3133 12 8.19125 11.9778 8.07738 11.9347C7.9635 11.8916 7.86004 11.8284 7.77288 11.7487C7.59686 11.5878 7.49798 11.3695 7.49798 11.1419C7.49798 11.0292 7.52225 10.9177 7.56942 10.8136C7.61659 10.7095 7.68573 10.6149 7.77288 10.5352L11.7981 6.85699L0.937395 6.85699C0.688782 6.85699 0.450352 6.7667 0.274557 6.60598C0.098761 6.44527 -1.52737e-07 6.22729 -1.5875e-07 6Z" fill="#FF0420"/>
</svg>
