<svg width="412" height="398" viewBox="0 0 412 398" fill="none" xmlns="http://www.w3.org/2000/svg">
<path d="M362.795 279.223L361.199 195.364L387.433 217.731L393.789 291.664L362.795 279.223Z" fill="url(#paint0_linear)"/>
<path d="M106.663 224.532L103.607 148.448C104.317 153.54 106.036 158.438 108.662 162.859C111.289 167.279 114.77 171.132 118.903 174.193C159.172 208.861 268.051 218.647 361.253 195.368L368.067 274.863C274.779 297.904 162.228 284.944 121.781 250.341C117.676 247.254 114.225 243.382 111.63 238.952C109.035 234.521 107.346 229.62 106.663 224.532Z" fill="url(#paint1_linear)"/>
<path d="M179.217 125.461L188.326 47.394L214.582 69.8205L220.857 143.715L179.217 125.461Z" fill="url(#paint2_linear)"/>
<path d="M44.7543 232.059L37.6553 154.256C34.3841 114.261 91.3071 71.3222 188.313 47.3995L195.273 128.938C98.2679 152.86 41.1485 192.253 44.7543 232.059Z" fill="url(#paint3_linear)"/>
<path d="M64.6402 263.05C9.71469 215.84 68.0785 152.492 194.592 121.332L220.772 143.724C127.52 166.684 84.7336 213.35 125.008 248.218C165.283 283.086 274.287 292.289 367.576 269.247L393.778 291.698C267.205 322.88 119.56 310.06 64.6402 263.05Z" fill="url(#paint4_linear)"/>
<defs>
<linearGradient id="paint0_linear" x1="402.065" y1="287.814" x2="352.446" y2="201.273" gradientUnits="userSpaceOnUse">
<stop stop-color="#FB4E4E"/>
<stop offset="1" stop-color="#CE1933"/>
</linearGradient>
<linearGradient id="paint1_linear" x1="2.00784e+06" y1="917965" x2="2.00017e+06" y2="917047" gradientUnits="userSpaceOnUse">
<stop stop-color="#7D4EFB"/>
<stop offset="1" stop-color="#CA2033"/>
</linearGradient>
<linearGradient id="paint2_linear" x1="36119.2" y1="-114923" x2="36658.5" y2="-115119" gradientUnits="userSpaceOnUse">
<stop stop-color="#D41133"/>
<stop offset="1" stop-color="#4E99FB"/>
</linearGradient>
<linearGradient id="paint3_linear" x1="176.947" y1="178.77" x2="130.569" y2="65.1368" gradientUnits="userSpaceOnUse">
<stop stop-color="#CE1933"/>
<stop offset="1" stop-color="#FB4E4E"/>
</linearGradient>
<linearGradient id="paint4_linear" x1="301.666" y1="120.307" x2="188.803" y2="313.801" gradientUnits="userSpaceOnUse">
<stop offset="0.234375" stop-color="#DF1830"/>
<stop offset="1" stop-color="#EF3C45"/>
</linearGradient>
</defs>
</svg>
