<svg width="248" height="161" viewBox="0 0 248 161" fill="none" xmlns="http://www.w3.org/2000/svg">
<g clip-path="url(#clip0)">
<path d="M39.5724 91.8595L45.4273 37.1245L24.1771 42.7298L0.0292969 83.459L39.5724 91.8595Z" fill="url(#paint0_linear)"/>
<path d="M185.215 123.363L206.292 81.6842C204.465 84.4559 202.096 86.828 199.33 88.6577C196.563 90.4874 193.455 91.7367 190.193 92.3303C157.392 101 92.3939 76.1999 45.3055 37.124L15.1299 88.0925C62.2182 127.208 133.419 142.947 166.22 134.277C169.474 133.661 175.018 132.683 177.782 130.855C180.546 129.027 183.371 126.119 185.215 123.363Z" fill="url(#paint1_linear)"/>
<path d="M172.021 49.4217L185.646 0.0214844L164.396 5.66712L140.248 46.3963L172.021 49.4217Z" fill="url(#paint2_linear)"/>
<path d="M216.517 145.767L242.273 103.259C255.313 81.2409 234.627 40.7536 185.647 0.0244141L159.76 43.5471C208.579 84.236 229.556 123.749 216.517 145.767Z" fill="url(#paint3_linear)"/>
<path d="M196.672 158.423C240.943 146.648 225.408 93.9018 161.457 40.7925L140.207 46.3978C187.335 85.514 198.966 124.429 166.045 133.099C133.123 141.769 68.2461 116.968 21.1578 77.852L0.0283203 83.4573C63.9398 136.567 152.16 170.199 196.672 158.423Z" fill="url(#paint4_linear)"/>
</g>
<defs>
<linearGradient id="paint0_linear" x1="-3.14216" y1="78.2164" x2="49.4236" y2="42.362" gradientUnits="userSpaceOnUse">
<stop stop-color="#4EA8FB"/>
<stop offset="1" stop-color="#1C7CFA"/>
</linearGradient>
<linearGradient id="paint1_linear" x1="8.22492" y1="123.773" x2="122.856" y2="-27.4376" gradientUnits="userSpaceOnUse">
<stop stop-color="#4E99FB"/>
<stop offset="1" stop-color="#AFFB4E"/>
</linearGradient>
<linearGradient id="paint2_linear" x1="137.077" y1="41.1491" x2="189.672" y2="5.30621" gradientUnits="userSpaceOnUse">
<stop stop-color="#4EA8FB"/>
<stop offset="1" stop-color="#1C7CFA"/>
</linearGradient>
<linearGradient id="paint3_linear" x1="155.589" y1="127.699" x2="278.538" y2="77.4037" gradientUnits="userSpaceOnUse">
<stop stop-color="#4E99FB"/>
<stop offset="1" stop-color="#AFFB4E"/>
</linearGradient>
<linearGradient id="paint4_linear" x1="110.29" y1="32.0419" x2="112.037" y2="152.374" gradientUnits="userSpaceOnUse">
<stop stop-color="#FBD54E"/>
<stop offset="0.36" stop-color="#BCEC6E"/>
<stop offset="1" stop-color="#FFBDA1"/>
</linearGradient>
<clipPath id="clip0">
<rect width="247" height="161" fill="white" transform="translate(0.0107422)"/>
</clipPath>
</defs>
</svg>
