<svg width="1392" height="466" viewBox="0 0 1392 466" fill="none" xmlns="http://www.w3.org/2000/svg">
<path opacity="0.2" fill-rule="evenodd" clip-rule="evenodd" d="M1384.69 465.074L1390.55 460.442C1390.66 460.367 1390.75 460.284 1390.82 460.194C1390.92 460.079 1390.98 459.954 1391.02 459.822C1391.1 459.629 1391.1 459.372 1391.02 459.115C1390.98 459.025 1390.94 458.933 1390.88 458.839C1390.79 458.708 1390.68 458.576 1390.55 458.452C1390.31 458.194 1390.01 458.002 1389.65 457.831L483.351 1.35352C483.108 1.22461 482.846 1.13867 482.523 1.05371C482.351 1.02734 482.164 1.00098 481.967 0.985352C481.84 0.974609 481.709 0.967773 481.575 0.967773C481.355 0.967773 481.145 0.987305 480.944 1.01367L480.667 1.05371C480.344 1.09668 480.082 1.22461 479.839 1.35352L0 243.813V247.768L73.9897 210.301L197.785 286.202L47.1123 367.199L0 336.141V341.532L42.5317 369.64L0 392.509V396.986L46.2241 372.102L177.99 459.115L167.611 465.074H176.186L181.965 461.749L186.998 465.074H195.565L186.525 459.115L337.823 372.102L479.759 459.115L470.085 465.074H478.671L484.057 461.749L489.479 465.074H498.052L488.314 459.115L629.201 372.123L781.286 459.158L772.378 465.074H780.907L785.866 461.771L791.641 465.074H800.274L789.841 459.115L920.417 372.166L1082.63 459.158L1074.43 465.074H1082.92L1087.49 461.771L1093.66 465.074H1102.2L1091.15 459.158L1211.43 372.209L1383.73 459.158L1376.23 465.074H1384.69ZM1045.81 288.686L924.109 369.726L1086.24 456.546L1206.57 369.769L1045.81 288.686ZM768.271 286.352L919.528 367.306L1041.27 286.395L890.996 210.579H890.976L768.271 286.352ZM483.108 288.558L342.101 369.683L484.017 456.546L624.943 369.726L483.108 288.558ZM764.578 288.643L633.216 369.683L785.221 456.546L915.836 369.726L764.578 288.643ZM487.083 286.245L628.918 367.242L760.28 286.33L618.829 210.472L487.083 286.245ZM350.496 208.267L483.108 283.997L614.854 208.353L482.321 137.269L350.496 208.267ZM338.126 367.199L479.133 286.288L346.521 210.387L205.735 286.202L338.126 367.199ZM182.55 456.546L333.848 369.683L201.478 288.515L50.8047 369.64L182.55 456.546ZM618.566 206.211L741.958 135.363L609.729 68.6475L486.014 135.256L618.546 206.211H618.566ZM745.933 137.397L622.542 208.353L763.973 284.039L886.779 208.438L745.933 137.397ZM605.995 66.7627L481.615 3.98633L357.82 66.6348L482.281 133.286L605.995 66.7627ZM478.568 135.234L354.107 68.54L222.483 135.171L346.742 206.126L478.568 135.234ZM342.767 208.245L218.508 137.162L78.2275 208.16L201.982 283.89L342.767 208.245Z" fill="white"/>
</svg>
