<svg width="21" height="18" viewBox="0 0 21 18" fill="none" xmlns="http://www.w3.org/2000/svg">
<path d="M6.59637 7.43457C5.94495 7.43457 5.43066 8.07981 5.43066 8.867C5.43066 9.65419 5.95637 10.2994 6.59637 10.2994C7.24779 10.2994 7.76207 9.65419 7.76207 8.867C7.7735 8.07981 7.24779 7.43457 6.59637 7.43457ZM10.7678 7.43457C10.1163 7.43457 9.60206 8.07981 9.60206 8.867C9.60206 9.65419 10.1278 10.2994 10.7678 10.2994C11.4192 10.2994 11.9335 9.65419 11.9335 8.867C11.9335 8.07981 11.4192 7.43457 10.7678 7.43457Z" fill="#FF0420"/>
<path d="M20.665 2.86516C19.9213 3.19141 19.1288 3.40766 18.3025 3.51266C19.1525 3.00516 19.8013 2.20766 20.1063 1.24641C19.3138 1.71891 18.4388 2.05266 17.5063 2.23891C16.7538 1.43766 15.6813 0.941406 14.5113 0.941406C12.2413 0.941406 10.4138 2.78391 10.4138 5.04266C10.4138 5.36766 10.4413 5.68016 10.5088 5.97766C7.10004 5.81141 4.08379 4.17766 2.05754 1.68891C1.70379 2.30266 1.49629 3.00516 1.49629 3.76141C1.49629 5.18141 2.22754 6.44016 3.31754 7.16891C2.65879 7.15641 2.01254 6.96516 1.46504 6.66391C1.46504 6.67641 1.46504 6.69266 1.46504 6.70891C1.46504 8.70141 2.88629 10.3564 4.75004 10.7377C4.41629 10.8289 4.05254 10.8727 3.67504 10.8727C3.41254 10.8727 3.14754 10.8577 2.89879 10.8027C3.43004 12.4264 4.93754 13.6202 6.73004 13.6589C5.33504 14.7502 3.56379 15.4077 1.64629 15.4077C1.31004 15.4077 0.987539 15.3927 0.665039 15.3514C2.48129 16.5227 4.63379 17.1914 6.95504 17.1914C14.5 17.1914 18.625 10.9414 18.625 5.52391C18.625 5.34266 18.6188 5.16766 18.61 4.99391C19.4238 4.41641 20.1075 3.69516 20.665 2.86516Z" fill="#FF0420"/>
</svg>
