<svg width="20" height="19" viewBox="0 0 20 19" fill="none" xmlns="http://www.w3.org/2000/svg">
<path d="M9.99976 0.200195C4.47476 0.200195 -0.000244141 4.48535 -0.000244141 9.77037C-0.000244141 13.9995 2.86476 17.5859 6.83726 18.8504C7.33726 18.9404 7.52059 18.6442 7.52059 18.3902C7.52059 18.1629 7.51226 17.5607 7.50809 16.763C4.72642 17.34 4.13976 15.479 4.13976 15.479C3.68476 14.3745 3.02726 14.0791 3.02726 14.0791C2.12142 13.4858 3.09726 13.498 3.09726 13.498C4.10142 13.5645 4.62892 14.484 4.62892 14.484C5.52059 15.9473 6.96976 15.5245 7.54142 15.2802C7.63142 14.661 7.88892 14.2398 8.17476 14.0003C5.95392 13.7609 3.61976 12.938 3.61976 9.27125C3.61976 8.22674 4.00726 7.37296 4.64892 6.7034C4.53642 6.46155 4.19892 5.48846 4.73642 4.17046C4.73642 4.17046 5.57392 3.914 7.48642 5.15166C8.28642 4.93902 9.13642 4.83352 9.98642 4.82865C10.8364 4.83352 11.6864 4.93902 12.4864 5.15166C14.3864 3.914 15.2239 4.17046 15.2239 4.17046C15.7614 5.48846 15.4239 6.46155 15.3239 6.7034C15.9614 7.37296 16.3489 8.22674 16.3489 9.27125C16.3489 12.9477 14.0114 13.7569 11.7864 13.9922C12.1364 14.2795 12.4614 14.8663 12.4614 15.7631C12.4614 17.0438 12.4489 18.0729 12.4489 18.3837C12.4489 18.6345 12.6239 18.9339 13.1364 18.8382C17.1373 17.5819 19.9998 13.993 19.9998 9.77037C19.9998 4.48535 15.5223 0.200195 9.99976 0.200195V0.200195Z" fill="#FF0420"/>
</svg>
