<svg width="150" height="150" viewBox="0 0 150 150" fill="none" xmlns="http://www.w3.org/2000/svg">
<circle cx="75" cy="75" r="72.5" stroke="#6A42FA" stroke-width="5"/>
<path d="M104.957 51.014C105.268 49.5673 103.849 48.3475 102.466 48.8754L42.4515 71.7854C41.7292 72.0612 41.2515 72.7535 41.25 73.5265C41.2485 74.2998 41.7235 74.9939 42.4448 75.2724L59.3039 81.7837V102.292C59.3039 103.157 59.898 103.909 60.7397 104.109C61.5757 104.308 62.4476 103.91 62.8395 103.133L69.8122 89.2961L86.8284 101.924C87.8634 102.693 89.3512 102.204 89.7278 100.969C105.615 48.8795 104.928 51.1449 104.957 51.014V51.014ZM90.1423 57.578L60.9069 78.3985L48.3278 73.5404L90.1423 57.578ZM63.0392 81.4656L88.5226 63.3173C66.5945 86.4501 67.7398 85.2325 67.6441 85.3613C67.5021 85.5524 67.8913 84.8075 63.0392 94.4359V81.4656ZM86.9276 97.3464L71.9495 86.2306L99.0319 57.6602L86.9276 97.3464Z" fill="#6A42FA"/>
</svg>
