<svg width="150" height="150" viewBox="0 0 150 150" fill="none" xmlns="http://www.w3.org/2000/svg">
<path d="M86.74 52.2079C76.9763 42.5974 61.085 42.5974 51.3212 52.2079C41.5596 61.8206 41.5596 77.4604 51.3212 87.0731C60.0161 95.6295 73.558 96.5462 83.3154 89.8648C83.5207 90.8211 83.9906 91.7336 84.7462 92.4773L98.9654 106.473C101.038 108.509 104.386 108.509 106.447 106.473C108.518 104.436 108.518 101.14 106.447 99.1087L92.2283 85.1085C91.4769 84.371 90.5478 83.9064 89.5763 83.7043C96.3684 74.0979 95.4371 60.7706 86.74 52.2079ZM82.2508 82.6543C74.9613 89.8294 63.0979 89.8294 55.8105 82.6543C48.5252 75.4791 48.5252 63.804 55.8105 56.6288C63.0979 49.4558 74.9613 49.4558 82.2508 56.6288C89.5403 63.804 89.5403 75.4791 82.2508 82.6543Z" fill="#2A80F0"/>
<circle cx="75" cy="75" r="72.5" stroke="#2A80F0" stroke-width="5"/>
</svg>
